<svg id="canvas" width="973.212" height="102.169" viewBox="190.225 259.139 973.212 102.169" preserveAspectRatio="xMidYMid meet" class="h-full w-full max-w-4xl text-primary transition-opacity duration-300 opacity-100" xmlns="http://www.w3.org/2000/svg"><g id="canvas-strokes"><path d="M 218.25,270.60 C 217.01 270.78, 215.86 270.83, 214.63 272.84 C 213.40 274.85, 213.32 276.74, 212.12 280.63 C 210.91 284.52, 210.39 287.02, 208.61 292.29 C 206.82 297.57, 205.45 301.04, 203.19 306.98 C 200.93 312.92, 199.22 316.33, 197.31 321.99 C 195.40 327.65, 194.27 330.69, 193.64 335.30 C 193.02 339.91, 193.01 341.86, 194.19 345.03 C 195.37 348.20, 196.71 349.67, 199.54 351.16 C 202.37 352.65, 204.44 353.14, 208.33 352.49 C 212.22 351.84, 214.45 350.68, 219.00 347.92 C 223.55 345.17, 226.00 343.13, 231.09 338.70 C 236.18 334.27, 239.08 331.24, 244.47 325.76 C 249.86 320.29, 252.84 317.02, 258.04 311.33 C 263.23 305.65, 265.93 302.71, 270.43 297.35 C 274.93 291.98, 276.98 289.22, 280.52 284.51 C 284.06 279.80, 286.05 277.45, 288.11 273.78 C 290.17 270.12, 291.03 268.50, 290.80 266.18 C 290.56 263.85, 289.08 262.34, 286.93 262.17 C 284.78 262.00, 283.29 262.47, 280.05 265.35 C 276.81 268.23, 274.96 271.10, 270.73 276.57 C 266.50 282.04, 263.65 285.91, 258.91 292.69 C 254.17 299.48, 251.32 303.42, 247.03 310.50 C 242.73 317.58, 240.36 321.72, 237.43 328.11 C 234.50 334.50, 233.28 337.50, 232.38 342.43 C 231.49 347.36, 231.34 349.66, 232.96 352.76 C 234.59 355.86, 236.81 357.15, 240.49 357.93 C 244.17 358.71, 246.76 358.28, 251.37 356.67 C 255.98 355.05, 258.53 353.36, 263.54 349.87 C 268.54 346.38, 271.36 343.96, 276.40 339.23 C 281.45 334.49, 284.30 331.23, 288.76 326.19 C 293.22 321.16, 295.62 318.22, 298.68 314.05 C 301.75 309.88, 303.62 307.96, 304.10 305.35 C 304.59 302.74, 303.05 300.97, 301.10 301.00 C 299.16 301.04, 297.17 302.55, 294.38 305.52 C 291.59 308.49, 289.89 311.50, 287.15 315.86 C 284.41 320.22, 282.75 323.07, 280.69 327.31 C 278.62 331.56, 277.11 333.71, 276.82 337.07 C 276.53 340.43, 277.31 342.35, 279.24 344.11 C 281.17 345.87, 283.23 346.53, 286.45 345.88 C 289.67 345.23, 291.33 343.75, 295.36 340.86 C 299.38 337.97, 301.67 335.54, 306.59 331.42 C 311.50 327.30, 314.54 324.67, 319.95 320.26 C 325.35 315.85, 328.51 313.27, 333.61 309.36 C 338.71 305.45, 341.84 303.28, 345.43 300.71 C 349.02 298.14, 350.36 297.64, 351.56 296.51 C 352.76 295.37, 352.35 294.85, 351.45 295.02 C 350.55 295.18, 348.83 295.56, 347.07 297.34 C 345.30 299.13, 344.45 300.96, 342.63 303.92 C 340.82 306.88, 339.66 308.84, 338.01 312.14 C 336.36 315.43, 334.97 317.22, 334.39 320.40 C 333.81 323.57, 334.02 325.61, 335.12 328.00 C 336.21 330.39, 337.58 331.31, 339.84 332.36 C 342.10 333.40, 343.62 333.85, 346.42 333.22 C 349.22 332.60, 350.65 331.58, 353.84 329.25 C 357.03 326.92, 358.47 324.92, 362.38 321.59 C 366.28 318.25, 368.82 316.20, 373.38 312.58 C 377.93 308.97, 380.75 306.71, 385.15 303.51 C 389.55 300.31, 391.89 298.61, 395.36 296.57 C 398.84 294.54, 400.70 294.29, 402.52 293.33 C 404.34 292.37, 404.52 291.70, 404.48 291.78 C 404.43 291.86, 403.38 292.04, 402.29 293.73 C 401.19 295.41, 400.48 297.08, 399.02 300.21 C 397.56 303.34, 396.61 305.66, 394.97 309.35 C 393.32 313.05, 391.93 315.27, 390.78 318.70 C 389.63 322.13, 388.85 323.86, 389.22 326.50 C 389.58 329.14, 390.54 330.48, 392.60 331.91 C 394.65 333.34, 396.48 334.19, 399.49 333.66 C 402.50 333.14, 404.00 331.37, 407.65 329.28 C 411.29 327.19, 413.52 325.70, 417.71 323.20 C 421.91 320.70, 424.33 319.03, 428.63 316.76 C 432.94 314.50, 435.61 313.43, 439.24 311.87 C 442.88 310.32, 444.89 310.01, 446.81 308.98 C 448.73 307.95, 448.91 306.91, 448.86 306.72 C 448.80 306.54, 447.79 306.63, 446.54 308.05 C 445.28 309.48, 444.39 310.99, 442.58 313.85 C 440.78 316.71, 439.46 319.02, 437.50 322.34 C 435.55 325.65, 433.86 327.24, 432.81 330.43 C 431.76 333.61, 431.50 335.72, 432.27 338.27 C 433.04 340.83, 434.16 342.15, 436.66 343.20 C 439.17 344.25, 441.02 344.56, 444.81 343.53 C 448.59 342.49, 450.99 340.75, 455.60 338.03 C 460.20 335.30, 462.70 333.58, 467.84 329.91 C 472.97 326.23, 476.15 323.39, 481.27 319.64 C 486.40 315.88, 489.83 313.72, 493.47 311.13 C 497.12 308.53, 498.57 307.60, 499.51 306.66 C 500.44 305.72, 499.28 304.99, 498.13 306.43 C 496.98 307.87, 495.43 310.30, 493.74 313.86 C 492.04 317.41, 490.64 320.21, 489.65 324.21 C 488.66 328.22, 488.19 330.60, 488.80 333.86 C 489.40 337.12, 490.46 338.77, 492.66 340.53 C 494.86 342.29, 496.65 342.82, 499.79 342.67 C 502.93 342.51, 504.88 341.61, 508.36 339.75 C 511.84 337.88, 513.43 336.38, 517.19 333.35 C 520.95 330.32, 523.15 328.21, 527.17 324.58 C 531.18 320.95, 533.59 318.63, 537.26 315.21 C 540.93 311.79, 543.03 310.03, 545.52 307.46 C 548.01 304.90, 548.79 304.06, 549.72 302.39 C 550.66 300.72, 550.71 299.96, 550.18 299.10 C 549.65 298.24, 548.55 297.76, 547.08 298.08 C 545.61 298.40, 544.25 299.02, 542.84 300.68 C 541.43 302.35, 541.25 303.75, 540.02 306.40 C 538.79 309.04, 538.54 310.78, 536.69 313.93 C 534.85 317.08, 532.97 318.84, 530.80 322.16 C 528.64 325.47, 526.98 327.29, 525.87 330.52 C 524.75 333.75, 524.69 335.44, 525.24 338.31 C 525.80 341.17, 526.27 343.03, 528.65 344.84 C 531.03 346.65, 533.47 347.33, 537.13 347.37 C 540.78 347.40, 543.05 346.57, 546.93 345.01 C 550.80 343.45, 552.74 342.19, 556.50 339.56 C 560.26 336.93, 562.42 335.21, 565.71 331.87 C 569.00 328.54, 570.85 326.58, 572.97 322.89 C 575.09 319.20, 575.69 317.16, 576.31 313.43 C 576.93 309.70, 576.92 307.51, 576.06 304.25 C 575.20 300.99, 574.17 299.42, 572.00 297.13 C 569.84 294.84, 568.11 293.74, 565.23 292.78 C 562.35 291.82, 560.24 291.53, 557.61 292.31 C 554.98 293.10, 553.26 294.47, 552.06 296.71 C 550.87 298.95, 550.69 301.02, 551.64 303.51 C 552.59 306.00, 553.94 307.83, 556.82 309.17 C 559.69 310.51, 561.85 310.15, 566.00 310.22 C 570.15 310.29, 572.75 310.04, 577.57 309.54 C 582.39 309.03, 585.08 308.52, 590.09 307.69 C 595.11 306.86, 597.73 306.14, 602.65 305.39 C 607.58 304.65, 610.55 304.21, 614.72 303.95 C 618.90 303.70, 621.07 303.92, 623.54 304.14 C 626.01 304.36, 626.66 304.30, 627.07 305.05 C 627.47 305.80, 626.74 306.30, 625.58 307.89 C 624.42 309.49, 623.27 310.82, 621.27 313.04 C 619.27 315.25, 616.98 316.52, 615.56 318.97 C 614.15 321.43, 613.91 323.40, 614.21 325.33 C 614.52 327.27, 615.34 328.21, 617.08 328.64 C 618.82 329.07, 620.24 329.05, 622.89 327.49 C 625.55 325.94, 626.99 323.58, 630.37 320.87 C 633.75 318.17, 636.03 316.26, 639.81 313.95 C 643.58 311.64, 646.16 310.77, 649.25 309.32 C 652.34 307.87, 653.69 307.46, 655.25 306.72 C 656.81 305.97, 657.10 305.62, 657.04 305.62 C 656.97 305.61, 656.21 305.39, 654.91 306.71 C 653.62 308.02, 652.63 309.55, 650.54 312.19 C 648.45 314.82, 646.55 316.74, 644.48 319.88 C 642.41 323.02, 640.62 325.04, 640.20 327.87 C 639.77 330.70, 640.39 332.95, 642.37 334.03 C 644.34 335.12, 646.29 334.89, 650.07 333.31 C 653.84 331.73, 656.26 329.46, 661.24 326.13 C 666.23 322.79, 669.69 319.98, 674.98 316.63 C 680.28 313.28, 683.27 311.72, 687.70 309.36 C 692.13 307.01, 694.81 306.00, 697.15 304.84 C 699.49 303.68, 699.49 303.37, 699.41 303.54 C 699.32 303.72, 698.10 304.07, 696.73 305.72 C 695.35 307.37, 694.24 309.10, 692.54 311.79 C 690.83 314.48, 689.73 316.44, 688.20 319.16 C 686.66 321.89, 685.74 322.91, 684.88 325.41 C 684.02 327.91, 683.39 329.36, 683.89 331.66 C 684.40 333.96, 685.40 335.47, 687.40 336.91 C 689.39 338.35, 690.92 338.89, 693.88 338.87 C 696.83 338.84, 698.41 338.09, 702.17 336.78 C 705.93 335.46, 708.20 334.33, 712.69 332.30 C 717.18 330.27, 719.81 328.89, 724.64 326.65 C 729.46 324.40, 732.04 322.88, 736.80 321.08 C 741.57 319.29, 744.04 318.60, 748.48 317.68 C 752.92 316.76, 755.32 316.66, 758.99 316.49 C 762.67 316.33, 764.14 316.58, 766.85 316.86 C 769.57 317.15, 770.54 317.40, 772.55 317.92 C 774.57 318.44, 775.38 319.13, 776.93 319.45 C 778.47 319.78, 779.39 320.02, 780.26 319.54 C 781.14 319.07, 781.52 318.04, 781.28 317.08 C 781.05 316.12, 780.58 315.10, 779.07 314.73 C 777.55 314.35, 776.13 314.33, 773.72 315.21 C 771.31 316.09, 770.25 317.25, 767.03 319.12 C 763.82 320.98, 761.45 322.20, 757.65 324.54 C 753.85 326.89, 751.46 328.21, 748.02 330.83 C 744.58 333.44, 742.99 334.90, 740.44 337.63 C 737.89 340.36, 736.27 341.67, 735.27 344.47 C 734.28 347.27, 734.40 349.16, 735.47 351.62 C 736.55 354.08, 737.89 355.59, 740.64 356.75 C 743.39 357.91, 745.45 357.95, 749.23 357.42 C 753.01 356.90, 755.12 355.93, 759.55 354.14 C 763.99 352.36, 766.90 351.27, 771.39 348.50 C 775.89 345.72, 778.18 343.58, 782.03 340.27 C 785.88 336.95, 787.77 335.17, 790.63 331.90 C 793.49 328.64, 795.05 327.10, 796.32 323.94 C 797.59 320.78, 797.51 318.79, 796.97 316.09 C 796.43 313.39, 795.33 312.11, 793.61 310.44 C 791.89 308.78, 790.39 307.87, 788.37 307.77 C 786.35 307.66, 784.65 308.43, 783.51 309.94 C 782.36 311.44, 781.99 313.25, 782.64 315.28 C 783.29 317.31, 784.23 319.00, 786.78 320.09 C 789.32 321.19, 791.50 321.02, 795.37 320.74 C 799.24 320.47, 801.38 319.90, 806.14 318.70 C 810.90 317.50, 813.75 316.76, 819.17 314.74 C 824.59 312.71, 827.83 311.28, 833.22 308.58 C 838.61 305.88, 841.14 304.42, 846.11 301.23 C 851.08 298.04, 854.05 295.76, 858.06 292.64 C 862.07 289.53, 864.80 288.18, 866.16 285.67 C 867.52 283.16, 866.49 280.95, 864.86 280.10 C 863.23 279.24, 861.13 279.28, 858.02 281.41 C 854.92 283.54, 852.94 286.20, 849.35 290.75 C 845.77 295.31, 843.67 298.69, 840.10 304.18 C 836.53 309.67, 834.60 312.80, 831.52 318.19 C 828.45 323.58, 827.03 326.52, 824.74 331.14 C 822.45 335.75, 821.06 337.94, 820.08 341.26 C 819.09 344.58, 819.00 345.90, 819.81 347.72 C 820.62 349.55, 821.77 350.18, 824.14 350.37 C 826.51 350.57, 828.77 350.41, 831.67 348.71 C 834.57 347.01, 835.96 344.74, 838.62 341.89 C 841.28 339.05, 842.29 337.32, 844.97 334.48 C 847.66 331.64, 849.37 330.34, 852.03 327.70 C 854.70 325.06, 856.22 323.63, 858.31 321.28 C 860.39 318.93, 861.23 317.92, 862.48 315.95 C 863.72 313.97, 864.22 312.95, 864.52 311.41 C 864.83 309.86, 864.52 308.98, 863.99 308.21 C 863.46 307.45, 862.67 307.48, 861.89 307.58 C 861.10 307.68, 861.13 307.97, 860.05 308.70 C 858.98 309.42, 858.05 309.69, 856.52 311.20 C 854.99 312.71, 854.28 313.91, 852.39 316.24 C 850.49 318.57, 849.51 320.21, 847.04 322.86 C 844.58 325.51, 842.89 326.90, 840.06 329.51 C 837.24 332.12, 835.69 333.57, 832.91 335.90 C 830.14 338.23, 828.30 339.23, 826.20 341.16 C 824.10 343.08, 823.05 344.24, 822.40 345.52 C 821.75 346.81, 822.23 348.01, 822.94 347.58 C 823.65 347.14, 824.69 346.24, 825.93 343.35 C 827.17 340.46, 827.26 337.73, 829.13 333.12 C 831.01 328.52, 832.34 325.60, 835.32 320.35 C 838.29 315.09, 840.32 312.02, 844.01 306.84 C 847.70 301.66, 850.12 298.55, 853.77 294.45 C 857.43 290.34, 860.06 288.82, 862.29 286.32 C 864.52 283.81, 865.03 282.84, 864.93 281.93 C 864.83 281.02, 863.83 280.46, 861.79 281.78 C 859.74 283.09, 858.32 285.38, 854.68 288.51 C 851.05 291.65, 848.31 294.26, 843.62 297.46 C 838.93 300.67, 836.45 302.03, 831.23 304.52 C 826.02 307.02, 822.77 308.33, 817.53 309.96 C 812.29 311.59, 809.47 312.21, 805.04 312.69 C 800.60 313.18, 798.47 312.65, 795.35 312.39 C 792.23 312.13, 791.12 311.59, 789.43 311.39 C 787.74 311.19, 787.71 310.96, 786.90 311.39 C 786.09 311.82, 785.39 312.64, 785.39 313.54 C 785.39 314.45, 786.03 315.49, 786.90 315.91 C 787.77 316.33, 788.94 315.44, 789.76 315.65 C 790.58 315.87, 790.99 315.85, 791.01 316.97 C 791.03 318.09, 790.85 319.01, 789.86 321.25 C 788.88 323.49, 788.38 325.20, 786.10 328.18 C 783.82 331.15, 781.96 333.05, 778.45 336.15 C 774.93 339.25, 772.73 341.28, 768.53 343.66 C 764.32 346.04, 761.47 346.86, 757.41 348.06 C 753.36 349.26, 751.21 349.32, 748.24 349.66 C 745.26 350.01, 744.16 349.80, 742.55 349.77 C 740.95 349.74, 740.43 349.96, 740.20 349.50 C 739.97 349.04, 740.32 348.89, 741.40 347.48 C 742.47 346.06, 743.45 344.71, 745.58 342.43 C 747.70 340.15, 748.92 338.44, 752.02 336.09 C 755.12 333.74, 757.34 332.52, 761.07 330.67 C 764.79 328.81, 767.36 327.97, 770.63 326.80 C 773.90 325.63, 775.25 325.69, 777.42 324.80 C 779.60 323.91, 780.35 323.57, 781.50 322.34 C 782.66 321.11, 782.96 320.22, 783.20 318.66 C 783.45 317.11, 783.52 315.88, 782.74 314.58 C 781.96 313.28, 781.02 312.91, 779.30 312.17 C 777.58 311.43, 776.54 311.36, 774.13 310.89 C 771.72 310.41, 770.40 309.86, 767.26 309.81 C 764.12 309.75, 762.43 310.06, 758.44 310.62 C 754.45 311.18, 752.00 311.43, 747.32 312.59 C 742.64 313.75, 740.02 314.56, 735.06 316.41 C 730.09 318.26, 727.43 319.78, 722.51 321.83 C 717.59 323.88, 714.94 325.15, 710.46 326.67 C 705.98 328.20, 703.57 328.76, 700.12 329.47 C 696.67 330.18, 695.28 329.86, 693.21 330.22 C 691.14 330.58, 690.60 331.04, 689.76 331.29 C 688.92 331.54, 688.61 331.84, 689.00 331.45 C 689.39 331.06, 690.30 330.82, 691.72 329.35 C 693.14 327.88, 694.30 326.74, 696.11 324.12 C 697.92 321.50, 699.29 319.46, 700.77 316.25 C 702.26 313.05, 703.32 311.04, 703.55 308.10 C 703.77 305.16, 703.56 303.33, 701.91 301.55 C 700.27 299.77, 698.66 298.52, 695.32 299.20 C 691.99 299.87, 689.82 302.27, 685.23 304.92 C 680.65 307.57, 677.79 309.16, 672.39 312.45 C 666.98 315.73, 663.26 318.32, 658.21 321.36 C 653.16 324.40, 650.20 325.67, 647.13 327.64 C 644.05 329.60, 643.02 330.46, 642.85 331.18 C 642.68 331.90, 644.47 332.42, 646.27 331.26 C 648.08 330.10, 649.55 328.16, 651.88 325.39 C 654.21 322.61, 655.94 320.54, 657.93 317.37 C 659.92 314.21, 661.41 312.37, 661.82 309.55 C 662.22 306.73, 661.45 305.06, 659.94 303.27 C 658.43 301.48, 656.95 300.63, 654.25 300.58 C 651.55 300.53, 650.00 301.51, 646.44 303.03 C 642.88 304.55, 640.58 305.89, 636.45 308.17 C 632.32 310.46, 629.63 312.01, 625.79 314.45 C 621.95 316.89, 619.43 318.11, 617.26 320.37 C 615.10 322.64, 614.82 324.17, 614.97 325.77 C 615.12 327.36, 616.17 328.35, 618.01 328.36 C 619.85 328.37, 621.99 327.84, 624.15 325.82 C 626.31 323.80, 627.11 321.36, 628.80 318.27 C 630.48 315.18, 632.04 313.54, 632.57 310.37 C 633.10 307.20, 633.03 304.97, 631.46 302.42 C 629.88 299.87, 628.15 298.46, 624.71 297.62 C 621.26 296.78, 618.79 297.71, 614.22 298.23 C 609.64 298.75, 606.81 299.40, 601.83 300.23 C 596.85 301.05, 594.24 301.73, 589.31 302.36 C 584.39 302.99, 581.76 303.32, 577.20 303.37 C 572.64 303.43, 569.99 303.10, 566.52 302.65 C 563.05 302.20, 561.71 301.56, 559.84 301.12 C 557.96 300.68, 557.67 300.65, 557.13 300.46 C 556.58 300.26, 556.74 300.22, 557.12 300.16 C 557.50 300.09, 557.90 300.03, 559.01 300.14 C 560.12 300.26, 561.12 300.27, 562.65 300.74 C 564.18 301.20, 565.44 301.37, 566.68 302.47 C 567.92 303.57, 568.26 304.22, 568.84 306.23 C 569.42 308.23, 569.85 309.79, 569.58 312.51 C 569.32 315.23, 569.16 316.82, 567.52 319.83 C 565.88 322.84, 564.30 324.68, 561.39 327.56 C 558.48 330.45, 556.36 332.15, 552.98 334.27 C 549.60 336.38, 547.73 337.17, 544.49 338.13 C 541.26 339.08, 539.35 338.77, 536.81 339.04 C 534.27 339.31, 532.89 339.71, 531.78 339.49 C 530.68 339.26, 530.99 339.10, 531.27 337.91 C 531.56 336.72, 532.05 335.86, 533.22 333.54 C 534.40 331.23, 535.12 329.35, 537.13 326.32 C 539.14 323.29, 540.95 321.40, 543.27 318.38 C 545.60 315.37, 547.09 313.84, 548.77 311.25 C 550.45 308.66, 551.03 307.56, 551.66 305.43 C 552.29 303.31, 552.39 302.21, 551.92 300.62 C 551.45 299.04, 550.61 297.97, 549.32 297.52 C 548.03 297.07, 547.16 297.26, 545.47 298.37 C 543.78 299.47, 543.29 300.45, 540.87 303.02 C 538.46 305.59, 536.85 307.71, 533.38 311.21 C 529.92 314.71, 527.53 317.06, 523.56 320.51 C 519.59 323.96, 517.24 325.92, 513.54 328.45 C 509.85 330.98, 508.09 331.79, 505.08 333.15 C 502.07 334.51, 500.39 334.56, 498.51 335.27 C 496.64 335.98, 496.14 337.02, 495.71 336.69 C 495.28 336.36, 495.93 335.68, 496.36 333.62 C 496.79 331.55, 496.93 329.76, 497.87 326.36 C 498.81 322.95, 500.02 320.41, 501.07 316.58 C 502.12 312.76, 503.60 309.95, 503.11 307.23 C 502.62 304.51, 501.15 303.11, 498.63 303.00 C 496.10 302.89, 494.50 304.10, 490.48 306.69 C 486.45 309.27, 483.57 312.07, 478.50 315.93 C 473.43 319.79, 470.27 322.60, 465.14 325.99 C 460.01 329.39, 457.35 330.79, 452.87 332.91 C 448.39 335.02, 445.73 335.56, 442.72 336.56 C 439.72 337.55, 438.89 337.62, 437.84 337.88 C 436.79 338.15, 436.95 338.68, 437.48 337.89 C 438.00 337.10, 439.04 336.17, 440.47 333.93 C 441.91 331.69, 442.69 329.81, 444.65 326.69 C 446.62 323.56, 448.55 321.57, 450.28 318.29 C 452.02 315.00, 453.19 313.07, 453.31 310.26 C 453.44 307.45, 452.58 305.78, 450.90 304.25 C 449.22 302.72, 447.77 302.23, 444.92 302.61 C 442.07 303.00, 440.45 304.37, 436.66 306.19 C 432.87 308.01, 430.35 309.39, 425.97 311.72 C 421.58 314.04, 419.09 315.61, 414.74 317.80 C 410.40 320.00, 407.76 321.05, 404.22 322.71 C 400.68 324.36, 398.97 325.00, 397.04 326.06 C 395.12 327.13, 394.94 327.83, 394.59 328.02 C 394.24 328.22, 394.57 328.32, 395.28 327.04 C 396.00 325.76, 396.80 324.51, 398.16 321.63 C 399.51 318.74, 400.35 316.21, 402.06 312.62 C 403.77 309.03, 405.24 307.09, 406.72 303.66 C 408.19 300.24, 409.39 298.38, 409.43 295.50 C 409.48 292.63, 408.67 290.90, 406.93 289.30 C 405.19 287.70, 403.63 287.01, 400.73 287.51 C 397.82 288.01, 396.12 289.40, 392.41 291.80 C 388.71 294.21, 386.62 296.17, 382.19 299.53 C 377.77 302.88, 374.97 305.08, 370.29 308.57 C 365.61 312.06, 362.91 314.08, 358.79 316.97 C 354.68 319.87, 352.66 321.30, 349.71 323.06 C 346.77 324.82, 345.71 325.00, 344.07 325.77 C 342.44 326.55, 342.19 326.79, 341.52 326.93 C 340.86 327.07, 340.53 327.30, 340.74 326.47 C 340.96 325.64, 341.65 324.85, 342.59 322.78 C 343.54 320.71, 343.88 318.90, 345.47 316.12 C 347.07 313.34, 348.71 311.79, 350.57 308.88 C 352.42 305.97, 354.01 304.36, 354.76 301.57 C 355.51 298.77, 355.29 296.74, 354.32 294.90 C 353.34 293.07, 352.24 292.06, 349.87 292.40 C 347.49 292.73, 346.23 293.84, 342.46 296.57 C 338.68 299.30, 336.01 301.95, 330.99 306.04 C 325.96 310.13, 322.82 312.70, 317.35 317.02 C 311.87 321.34, 308.67 323.88, 303.61 327.65 C 298.55 331.42, 295.94 333.55, 292.07 335.87 C 288.19 338.18, 286.31 338.12, 284.24 339.23 C 282.17 340.33, 281.87 341.53, 281.72 341.39 C 281.56 341.26, 282.52 340.80, 283.48 338.56 C 284.44 336.31, 284.61 333.98, 286.50 330.18 C 288.40 326.38, 290.28 323.67, 292.96 319.57 C 295.63 315.47, 297.92 312.94, 299.86 309.67 C 301.79 306.40, 302.66 304.53, 302.64 303.23 C 302.62 301.93, 301.35 301.60, 299.75 303.19 C 298.15 304.77, 297.49 307.11, 294.66 311.16 C 291.83 315.21, 289.81 318.45, 285.59 323.45 C 281.36 328.44, 278.49 331.65, 273.54 336.13 C 268.60 340.62, 265.67 342.83, 260.88 345.88 C 256.08 348.93, 253.47 350.12, 249.58 351.39 C 245.68 352.66, 243.83 352.45, 241.40 352.25 C 238.98 352.06, 238.42 352.22, 237.46 350.40 C 236.49 348.58, 235.94 347.31, 236.60 343.15 C 237.25 338.98, 238.06 335.76, 240.73 329.58 C 243.39 323.40, 245.68 319.20, 249.92 312.26 C 254.17 305.32, 257.05 301.41, 261.94 294.88 C 266.83 288.35, 269.93 284.63, 274.39 279.60 C 278.86 274.57, 281.58 272.55, 284.26 269.72 C 286.94 266.89, 287.33 266.33, 287.80 265.47 C 288.27 264.61, 287.48 264.28, 286.62 265.42 C 285.75 266.56, 285.36 267.83, 283.48 271.18 C 281.59 274.53, 280.34 277.37, 277.18 282.16 C 274.03 286.94, 272.03 289.72, 267.69 295.09 C 263.35 300.46, 260.64 303.38, 255.47 308.98 C 250.31 314.59, 247.28 317.85, 241.85 323.13 C 236.42 328.41, 233.42 331.35, 228.33 335.37 C 223.24 339.39, 220.61 341.09, 216.38 343.23 C 212.15 345.37, 210.06 345.52, 207.19 346.07 C 204.33 346.62, 203.55 346.58, 202.06 345.98 C 200.58 345.37, 200.43 345.06, 199.76 343.05 C 199.10 341.03, 198.35 339.83, 198.74 335.91 C 199.13 331.99, 199.97 328.89, 201.72 323.45 C 203.48 318.01, 205.12 314.53, 207.53 308.70 C 209.93 302.87, 211.48 299.43, 213.75 294.30 C 216.02 289.17, 217.31 286.82, 218.86 283.06 C 220.41 279.29, 221.10 277.70, 221.50 275.47 C 221.89 273.24, 221.49 272.89, 220.84 271.92 C 220.19 270.94, 219.49 270.41, 218.25 270.60" style="stroke: black; fill: black;"/><path d="M 864.80,314.23 C 865.84 313.67, 865.58 313.01, 865.99 312.39 C 866.39 311.77, 866.33 311.70, 866.83 311.12 C 867.33 310.53, 867.16 310.14, 868.48 309.47 C 869.80 308.79, 871.11 308.60, 873.43 307.75 C 875.75 306.89, 877.31 306.12, 880.08 305.20 C 882.84 304.28, 884.70 303.98, 887.25 303.15 C 889.79 302.32, 891.04 302.04, 892.80 301.03 C 894.57 300.02, 895.19 299.39, 896.06 298.12 C 896.93 296.85, 897.16 296.19, 897.16 294.68 C 897.16 293.18, 897.21 291.86, 896.05 290.59 C 894.89 289.33, 893.58 288.55, 891.37 288.34 C 889.16 288.14, 887.60 288.42, 884.99 289.56 C 882.38 290.70, 881.10 291.82, 878.32 294.04 C 875.54 296.26, 874.07 297.82, 871.09 300.66 C 868.12 303.50, 866.22 305.30, 863.46 308.25 C 860.70 311.20, 858.92 312.61, 857.28 315.42 C 855.65 318.22, 855.27 319.77, 855.27 322.28 C 855.28 324.80, 855.75 326.22, 857.30 327.98 C 858.84 329.74, 860.42 330.51, 863.01 331.08 C 865.59 331.64, 867.25 331.47, 870.22 330.80 C 873.19 330.13, 874.89 328.98, 877.85 327.72 C 880.82 326.46, 882.81 325.99, 885.05 324.49 C 887.29 323.00, 888.31 321.55, 889.05 320.26 C 889.79 318.96, 889.37 318.00, 888.76 318.02 C 888.15 318.04, 886.99 318.64, 886.00 320.34 C 885.01 322.05, 884.06 323.62, 883.81 326.53 C 883.57 329.44, 883.70 331.84, 884.79 334.90 C 885.88 337.95, 886.96 339.61, 889.26 341.82 C 891.56 344.03, 893.04 345.18, 896.29 345.93 C 899.54 346.68, 901.54 346.54, 905.51 345.57 C 909.48 344.60, 911.74 343.32, 916.12 341.08 C 920.50 338.85, 922.83 337.30, 927.41 334.40 C 932.00 331.51, 934.86 329.43, 939.04 326.60 C 943.22 323.77, 945.46 322.45, 948.30 320.25 C 951.15 318.05, 952.56 316.75, 953.25 315.61 C 953.94 314.47, 952.95 314.21, 951.75 314.56 C 950.54 314.91, 949.08 315.67, 947.21 317.37 C 945.35 319.07, 943.82 320.48, 942.43 323.07 C 941.04 325.65, 940.51 327.64, 940.26 330.28 C 940.01 332.93, 940.29 334.22, 941.18 336.29 C 942.07 338.36, 942.64 339.41, 944.70 340.62 C 946.77 341.84, 948.47 342.59, 951.52 342.35 C 954.57 342.11, 956.16 340.92, 959.94 339.44 C 963.71 337.96, 965.90 336.99, 970.40 334.95 C 974.91 332.92, 978.08 331.29, 982.46 329.27 C 986.85 327.24, 989.58 326.58, 992.34 324.83 C 995.10 323.09, 995.82 321.88, 996.26 320.55 C 996.70 319.22, 996.14 318.17, 994.54 318.17 C 992.94 318.17, 991.04 318.55, 988.27 320.56 C 985.49 322.56, 983.43 324.85, 980.66 328.21 C 977.89 331.57, 976.20 333.70, 974.43 337.35 C 972.65 341.00, 971.53 343.04, 971.78 346.44 C 972.02 349.84, 972.81 352.26, 975.66 354.34 C 978.50 356.42, 981.22 356.65, 985.99 356.84 C 990.76 357.03, 993.47 356.36, 999.52 355.30 C 1005.57 354.25, 1009.31 353.45, 1016.26 351.56 C 1023.20 349.66, 1027.47 348.28, 1034.25 345.82 C 1041.04 343.36, 1044.54 341.63, 1050.16 339.27 C 1055.78 336.91, 1058.93 336.23, 1062.35 334.02 C 1065.77 331.82, 1066.97 330.58, 1067.26 328.26 C 1067.55 325.95, 1066.37 323.76, 1063.80 322.44 C 1061.23 321.13, 1058.69 321.54, 1054.41 321.71 C 1050.13 321.87, 1047.33 322.52, 1042.39 323.27 C 1037.46 324.02, 1034.57 324.53, 1029.73 325.46 C 1024.89 326.39, 1022.53 327.03, 1018.20 327.90 C 1013.86 328.76, 1011.05 328.82, 1008.04 329.79 C 1005.03 330.77, 1004.17 331.49, 1003.16 332.77 C 1002.15 334.05, 1002.70 335.34, 1002.98 336.19 C 1003.26 337.04, 1004.20 337.26, 1004.58 337.03 C 1004.96 336.81, 1004.95 335.35, 1004.88 335.06 C 1004.82 334.76, 1004.21 335.20, 1004.23 335.55 C 1004.25 335.90, 1003.85 336.50, 1005.00 336.79 C 1006.15 337.08, 1007.07 337.63, 1009.99 337.00 C 1012.91 336.37, 1015.46 334.86, 1019.61 333.64 C 1023.75 332.42, 1026.02 331.74, 1030.73 330.92 C 1035.44 330.09, 1038.33 329.95, 1043.15 329.52 C 1047.96 329.10, 1050.93 329.08, 1054.80 328.79 C 1058.68 328.50, 1060.62 328.37, 1062.53 328.07 C 1064.43 327.78, 1064.89 327.03, 1064.34 327.31 C 1063.78 327.60, 1062.93 327.91, 1059.75 329.52 C 1056.57 331.14, 1053.80 332.87, 1048.44 335.40 C 1043.07 337.93, 1039.57 339.74, 1032.93 342.18 C 1026.28 344.63, 1022.05 345.94, 1015.23 347.61 C 1008.41 349.28, 1004.60 349.86, 998.82 350.55 C 993.04 351.23, 990.25 351.35, 986.33 351.04 C 982.40 350.73, 980.85 349.90, 979.19 349.00 C 977.54 348.11, 977.70 348.14, 978.05 346.56 C 978.39 344.99, 979.13 343.64, 980.93 341.11 C 982.73 338.58, 984.33 336.69, 987.04 333.90 C 989.76 331.12, 992.36 329.79, 994.49 327.19 C 996.62 324.59, 997.59 322.89, 997.71 320.91 C 997.82 318.93, 996.81 317.83, 995.06 317.30 C 993.31 316.78, 992.02 317.01, 988.95 318.28 C 985.88 319.55, 983.91 321.47, 979.72 323.65 C 975.52 325.82, 972.36 327.44, 967.96 329.16 C 963.57 330.88, 961.27 331.46, 957.72 332.23 C 954.18 333.00, 952.56 332.52, 950.25 333.01 C 947.95 333.49, 947.09 334.20, 946.21 334.66 C 945.33 335.13, 945.43 335.52, 945.86 335.34 C 946.29 335.15, 946.96 334.96, 948.36 333.72 C 949.76 332.48, 951.39 331.47, 952.86 329.13 C 954.33 326.79, 955.14 324.79, 955.72 322.01 C 956.30 319.23, 956.56 317.33, 955.77 315.24 C 954.97 313.15, 954.00 311.61, 951.75 311.56 C 949.50 311.51, 947.69 312.86, 944.52 314.97 C 941.35 317.09, 939.87 319.19, 935.88 322.15 C 931.89 325.12, 929.02 327.09, 924.56 329.80 C 920.10 332.50, 917.68 333.90, 913.57 335.67 C 909.46 337.44, 907.14 338.08, 904.01 338.64 C 900.89 339.20, 899.80 338.85, 897.94 338.47 C 896.08 338.09, 895.48 337.83, 894.72 336.74 C 893.96 335.66, 894.02 334.94, 894.13 333.05 C 894.24 331.15, 895.16 329.70, 895.26 327.26 C 895.36 324.83, 895.38 323.16, 894.63 320.88 C 893.89 318.59, 893.19 317.13, 891.55 315.84 C 889.92 314.54, 888.63 314.42, 886.47 314.41 C 884.30 314.39, 883.19 314.94, 880.73 315.77 C 878.28 316.61, 876.90 317.56, 874.19 318.57 C 871.48 319.58, 869.47 319.90, 867.19 320.83 C 864.90 321.76, 864.06 322.53, 862.75 323.22 C 861.44 323.91, 860.99 324.25, 860.64 324.29 C 860.28 324.33, 860.29 324.29, 860.97 323.41 C 861.64 322.53, 862.43 321.93, 864.02 319.89 C 865.60 317.85, 866.46 315.93, 868.88 313.21 C 871.30 310.49, 873.21 308.70, 876.12 306.31 C 879.03 303.92, 880.83 302.83, 883.42 301.26 C 886.01 299.68, 887.46 299.25, 889.08 298.43 C 890.70 297.62, 890.84 297.46, 891.53 297.20 C 892.23 296.94, 892.01 297.49, 892.56 297.13 C 893.10 296.78, 894.06 296.10, 894.26 295.41 C 894.46 294.71, 894.31 294.03, 893.56 293.68 C 892.81 293.32, 892.23 293.56, 890.51 293.63 C 888.79 293.70, 887.59 293.58, 884.96 294.04 C 882.33 294.50, 880.45 295.16, 877.37 295.95 C 874.30 296.74, 872.50 296.77, 869.58 297.98 C 866.67 299.19, 864.78 300.14, 862.79 301.98 C 860.80 303.83, 860.51 305.24, 859.62 307.20 C 858.74 309.16, 858.13 310.19, 858.36 311.78 C 858.59 313.38, 859.48 314.68, 860.77 315.17 C 862.06 315.66, 863.76 314.79, 864.80 314.23" style="stroke: black; fill: black;"/><path d="M 1083.84,342.03 C 1085.14 342.53, 1086.39 342.28, 1088.16 341.51 C 1089.94 340.74, 1090.87 339.90, 1092.73 338.19 C 1094.58 336.48, 1095.65 335.37, 1097.44 332.96 C 1099.23 330.56, 1099.98 328.85, 1101.67 326.16 C 1103.37 323.47, 1104.34 322.18, 1105.91 319.50 C 1107.48 316.83, 1108.46 315.24, 1109.53 312.77 C 1110.59 310.30, 1110.87 309.39, 1111.23 307.14 C 1111.59 304.88, 1112.09 303.61, 1111.32 301.48 C 1110.56 299.36, 1109.38 297.85, 1107.40 296.50 C 1105.41 295.15, 1104.26 294.77, 1101.40 294.71 C 1098.53 294.65, 1096.56 294.60, 1093.07 296.19 C 1089.59 297.79, 1087.48 299.79, 1083.97 302.69 C 1080.46 305.60, 1078.80 307.45, 1075.55 310.70 C 1072.29 313.94, 1070.56 315.70, 1067.69 318.91 C 1064.82 322.12, 1063.08 323.69, 1061.19 326.76 C 1059.30 329.82, 1058.51 331.52, 1058.24 334.24 C 1057.96 336.97, 1058.31 338.52, 1059.81 340.38 C 1061.31 342.24, 1062.98 343.32, 1065.74 343.52 C 1068.49 343.73, 1070.21 343.09, 1073.59 341.41 C 1076.96 339.73, 1078.70 337.89, 1082.62 335.12 C 1086.53 332.35, 1088.86 330.54, 1093.17 327.57 C 1097.48 324.60, 1100.19 322.74, 1104.17 320.25 C 1108.14 317.77, 1110.62 316.77, 1113.05 315.15 C 1115.48 313.54, 1116.02 312.61, 1116.33 312.18 C 1116.63 311.75, 1115.82 311.69, 1114.58 313.00 C 1113.34 314.32, 1112.09 315.78, 1110.12 318.76 C 1108.14 321.74, 1106.60 324.19, 1104.70 327.88 C 1102.80 331.57, 1100.85 333.64, 1100.62 337.20 C 1100.39 340.77, 1101.00 343.40, 1103.54 345.71 C 1106.09 348.02, 1108.18 348.48, 1113.35 348.75 C 1118.52 349.01, 1122.67 348.25, 1129.39 347.04 C 1136.10 345.82, 1140.96 344.43, 1146.91 342.67 C 1152.85 340.91, 1156.89 339.81, 1159.11 338.24 C 1161.32 336.66, 1160.65 334.76, 1157.98 334.79 C 1155.30 334.81, 1151.63 336.91, 1145.74 338.37 C 1139.85 339.83, 1134.99 341.07, 1128.55 342.07 C 1122.11 343.07, 1117.84 343.47, 1113.55 343.38 C 1109.26 343.30, 1108.26 342.56, 1107.10 341.63 C 1105.94 340.71, 1106.77 340.70, 1107.74 338.75 C 1108.71 336.81, 1110.02 335.09, 1111.94 331.92 C 1113.87 328.76, 1115.67 326.36, 1117.38 322.93 C 1119.08 319.49, 1120.50 317.53, 1120.47 314.74 C 1120.44 311.95, 1119.33 310.08, 1117.24 308.97 C 1115.14 307.86, 1113.25 307.91, 1110.01 309.20 C 1106.76 310.49, 1104.99 312.68, 1101.00 315.42 C 1097.01 318.16, 1094.40 320.04, 1090.03 322.90 C 1085.67 325.75, 1083.16 327.44, 1079.17 329.71 C 1075.17 331.98, 1072.91 332.87, 1070.07 334.25 C 1067.22 335.63, 1066.29 335.92, 1064.94 336.60 C 1063.58 337.29, 1063.35 337.81, 1063.28 337.67 C 1063.21 337.52, 1063.81 337.32, 1064.60 335.87 C 1065.40 334.43, 1065.69 333.04, 1067.25 330.46 C 1068.81 327.87, 1069.87 326.01, 1072.39 322.96 C 1074.91 319.90, 1076.70 318.11, 1079.86 315.17 C 1083.02 312.23, 1084.89 310.51, 1088.18 308.25 C 1091.48 305.99, 1093.65 304.90, 1096.35 303.86 C 1099.05 302.81, 1100.12 303.23, 1101.68 303.02 C 1103.23 302.82, 1103.32 302.72, 1104.12 302.81 C 1104.92 302.90, 1105.54 303.06, 1105.67 303.48 C 1105.80 303.89, 1105.55 303.85, 1104.76 304.90 C 1103.98 305.94, 1103.04 306.68, 1101.76 308.71 C 1100.47 310.73, 1099.80 312.54, 1098.32 315.03 C 1096.84 317.52, 1096.11 318.83, 1094.37 321.17 C 1092.62 323.51, 1091.36 324.67, 1089.60 326.75 C 1087.83 328.83, 1086.88 329.81, 1085.54 331.57 C 1084.20 333.33, 1083.67 334.06, 1082.90 335.54 C 1082.13 337.03, 1081.48 337.69, 1081.67 338.99 C 1081.86 340.28, 1082.54 341.52, 1083.84 342.03" style="stroke: black; fill: black;"/></g></svg>